<?xml version="1.0" standalone="no"?><!DOCTYPE svg PUBLIC "-//W3C//DTD SVG 1.1//EN" "http://www.w3.org/Graphics/SVG/1.1/DTD/svg11.dtd"><svg t="1635942527050" class="icon" viewBox="0 0 1027 1024" version="1.1" xmlns="http://www.w3.org/2000/svg" p-id="4421" xmlns:xlink="http://www.w3.org/1999/xlink" width="200.5859375" height="200"><defs><style type="text/css"></style></defs><path d="M291.84 334.506667c37.546667-40.96 75.093333-92.16 81.92-129.706667H209.92c6.826667 40.96 44.373333 88.746667 81.92 129.706667z" fill="#1296db" p-id="4422"></path><path d="M530.773333 443.733333c10.24 0 17.066667-6.826667 17.066667-17.066666V17.066667c0-10.24-6.826667-17.066667-17.066667-17.066667H18.773333C8.533333 0 1.706667 6.826667 1.706667 17.066667v512c0 10.24 6.826667 17.066667 17.066666 17.066666h409.6c10.24 0 17.066667-6.826667 17.066667-17.066666v-34.133334c0-27.306667 23.893333-51.2 51.2-51.2h34.133333z m-102.4-238.933333H411.306667c-10.24 51.2-51.2 109.226667-95.573334 157.013333 20.48 23.893333 40.96 40.96 54.613334 54.613334 6.826667 6.826667 6.826667 17.066667 3.413333 23.893333-3.413333 3.413333-6.826667 6.826667-13.653333 6.826667-3.413333 0-6.826667 0-10.24-3.413334-3.413333-3.413333-27.306667-23.893333-58.026667-54.613333-30.72 30.72-54.613333 51.2-58.026667 54.613333h-10.24c-3.413333 0-10.24-3.413333-13.653333-6.826666-6.826667-6.826667-6.826667-17.066667 3.413333-23.893334 13.653333-10.24 34.133333-30.72 54.613334-54.613333C226.986667 314.026667 182.613333 256 172.373333 204.8h-17.066666c-10.24 0-17.066667-6.826667-17.066667-17.066667s6.826667-17.066667 17.066667-17.066666H274.773333V119.466667c0-10.24 6.826667-17.066667 17.066667-17.066667s17.066667 6.826667 17.066667 17.066667V170.666667h119.466666c10.24 0 17.066667 6.826667 17.066667 17.066666s-6.826667 17.066667-17.066667 17.066667z" fill="#1296db" p-id="4423"></path><path d="M1008.64 477.866667h-512c-10.24 0-17.066667 6.826667-17.066667 17.066666v512c0 10.24 6.826667 17.066667 17.066667 17.066667h512c10.24 0 17.066667-6.826667 17.066667-17.066667v-512c0-10.24-6.826667-17.066667-17.066667-17.066666z m-95.573333 443.733333h-6.826667c-6.826667 0-13.653333-3.413333-17.066667-10.24L855.04 819.2h-170.666667l-34.133333 92.16c-3.413333 10.24-13.653333 13.653333-20.48 10.24-10.24-3.413333-13.653333-13.653333-10.24-23.893333l136.533333-341.333334c6.826667-13.653333 27.306667-13.653333 30.72 0l136.533334 341.333334c3.413333 10.24-3.413333 20.48-10.24 23.893333z" fill="#1296db" p-id="4424"></path><path d="M698.026667 785.066667h143.36l-71.68-177.493334zM633.173333 102.4c143.36 0 262.826667 105.813333 286.72 245.76l-34.133333-34.133333c-6.826667-6.826667-17.066667-6.826667-23.893333 0-6.826667 6.826667-6.826667 17.066667 0 23.893333l68.266666 64.853333c3.413333 3.413333 6.826667 6.826667 13.653334 6.826667h3.413333c3.413333 0 3.413333-3.413333 6.826667-3.413333l68.266666-68.266667c6.826667-6.826667 6.826667-17.066667 0-23.893333s-17.066667-6.826667-23.893333 0L957.44 354.986667C936.96 194.56 800.426667 68.266667 633.173333 68.266667c-10.24 0-17.066667 6.826667-17.066666 17.066666s6.826667 17.066667 17.066666 17.066667zM428.373333 921.6c-160.426667 0-296.96-105.813333-320.853333-245.76l34.133333 34.133333c3.413333 6.826667 10.24 6.826667 13.653334 6.826667s10.24 0 13.653333-3.413333c6.826667-6.826667 6.826667-17.066667 0-23.893334l-68.266667-68.266666s-3.413333-3.413333-6.826666-3.413334c-3.413333-3.413333-10.24-3.413333-13.653334-3.413333-3.413333 0-3.413333 3.413333-6.826666 3.413333l-68.266667 68.266667c-6.826667 6.826667-6.826667 17.066667 0 23.893333s17.066667 6.826667 23.893333 0L69.973333 669.013333c23.893333 160.426667 174.08 286.72 358.4 286.72 10.24 0 17.066667-6.826667 17.066667-17.066666s-6.826667-17.066667-17.066667-17.066667z" fill="#1296db" p-id="4425"></path></svg>