<svg width="120" height="120" viewBox="0 0 120 120" class="css-1j8o68f"><g id="SvgjsG1277" featurekey="1p4tPl-0" transform="matrix(0.22971939373853612,0,0,0.22971939373853612,-7.040627236217788,-4.364939260804621)" fill="#1677ff"><path xmlns="http://www.w3.org/2000/svg" d="M408.907,155.177c-8.793-7.847-19.864-14.913-32.45-20.733c8.768-15.833,17.006-36.019,21.062-58.893  c5.786,18.762,15.91,42.456,33.376,63.288c35.675,42.549,88.455,57.035,88.455,57.035s-5.057-54.498-40.73-97.047  c-26.14-31.177-61.46-47.286-78.476-53.669c-0.033-5.729-0.37-11.562-1.059-17.48c-0.626-5.381-5.51-9.237-10.875-8.61  c-5.381,0.625-9.235,5.494-8.611,10.875c4.556,39.196-8.087,74.102-21.472,97.279c-51.642-17.044-119.648-13.595-164.914,35.059  c-60.554,65.088-64.838,157.651-116.282,197.46c-43.921,33.988-51.681,55.513-43.309,92.051  c11.669,50.934,146.731,133.881,295.927,27.836C478.747,373.583,460.071,200.837,408.907,155.177z"></path></g></svg>